# xmcd
#
# Track frame offsets: 
#        150
#        23349
#        36003
#        50889
#        61540
#        78920
#        90989
#        103734
#        117989
#        129067
#        138310
#        145436
#        164823
#        182370
#        192717
#        208074
#        219055
#        231215
#        245286
#        257620
#
# Disc length: 3685 seconds
#
# Revision: 1
# Processed by: cddbd v1.5.2PL0 Copyright (c) Steve Scherf et al.
# Submitted via: ExactAudioCopyFreeDBPlugin 1.0
#
DISCID=0d0e6314
DTITLE=J.J. Cale - Collected [CD2-3]
DYEAR=2006
DGENRE=General Blues
TTITLE0=Sensitive kind  (1979)
TTITLE1=Thirteen days  (1979)
TTITLE2=Mona  (1979)
TTITLE3=Carry on  (1980)
TTITLE4=Mama don't  (1980)
TTITLE5=If you leave her  (1980)
TTITLE6=City girls  (1982)
TTITLE7=Don't wait  (1982)
TTITLE8=Downtown L.A.  (1982)
TTITLE9=Devil in disguise  (1982)
TTITLE10=Grasshopper  (1982)
TTITLE11=Money talks  (1983)
TTITLE12=Hard times  (1983)
TTITLE13=Teardrops in my tequila  (1983)
TTITLE14=Trouble in the city  (1983)
TTITLE15=Change your mind  (1990)
TTITLE16=Lady Luck  (1990)
TTITLE17=Lonesome train  (1992)
TTITLE18=Jailer  (1992)
TTITLE19=Borrowed time  (1994)
EXTD=
EXTT0=
EXTT1=
EXTT2=
EXTT3=
EXTT4=
EXTT5=
EXTT6=
EXTT7=
EXTT8=
EXTT9=
EXTT10=
EXTT11=
EXTT12=
EXTT13=
EXTT14=
EXTT15=
EXTT16=
EXTT17=
EXTT18=
EXTT19=
PLAYORDER=
